<svg height="512" viewBox="0 0 60 60" width="512" xmlns="http://www.w3.org/2000/svg"><g id="Page-1" fill="none" fill-rule="evenodd"><g id="016---Banana-Peel" fill-rule="nonzero" transform="translate(-1 -1)"><path id="Shape" d="m60 54.82c-.0004475 1.3841135-.5545966 2.7105257-1.538932 3.68359-.9843354.9730644-2.3170411 1.5119019-3.701068 1.49641h-10.76c-7.1797017 0-13-5.8202983-13-13 0 7.1797017-5.8202983 13-13 13h-10.76c-1.38402691.0154919-2.71673262-.5233456-3.70106802-1.49641-.9843354-.9730643-1.53848448-2.2994765-1.53893198-3.68359.045154-1.2444882.55125647-2.42777 1.42-3.32l.04-.04c.94086769-.9350954 2.21348749-1.4599612 3.54-1.46h10c2.7614237 0 5-2.2385763 5-5v-28c-.0025878-3.7561854 2.3303798-7.1180515 5.85-8.43.6877284-.25766288 1.1841201-.86478804 1.3-1.59.245497-1.60866988.8245466-3.14826064 1.7-4.52.1629115-.25559513.4329567-.42350817.734249-.45655314.3012923-.03304496.6013127.07234476.815751.28655314l1.43 1.43c.3162222.31488265.3818212.80277538.16 1.19-.2387341.42693676-.4362915.87562657-.59 1.34-.3256976.97027889.1368941 2.02948424 1.07 2.45 1.0795351.45404335 2.0609331 1.11283649 2.89 1.94 1.6926126 1.6833257 2.6429787 3.972844 2.64 6.36v28c0 2.7614237 2.2385763 5 5 5h10c1.3265125.0000388 2.5991323.5249046 3.54 1.46l.04.04c.8687435.89223 1.374846 2.0755118 1.42 3.32z" fill="#ffdc00"/><path id="Shape" d="m58.58 51.5-.04-.04c-.9408677-.9350954-2.2134875-1.4599612-3.54-1.46h-3c1.3265125.0000388 2.5991323.5249046 3.54 1.46l.04.04c.8687435.89223 1.374846 2.0755118 1.42 3.32-.0004475 1.3841135-.5545966 2.7105257-1.538932 3.68359-.9843354.9730644-2.3170411 1.5119019-3.701068 1.49641h3c1.3840269.0154919 2.7167326-.5233456 3.701068-1.49641.9843354-.9730643 1.5384845-2.2994765 1.538932-3.68359-.045154-1.2444882-.5512565-2.42777-1.42-3.32z" fill="#fec108"/><path id="Shape" d="m30.83 3.72c.3162222.31488265.3818212.80277538.16 1.19-.2387341.42693676-.4362915.87562657-.59 1.34-.3256976.97027889.1368941 2.02948424 1.07 2.45 1.0795351.45404335 2.0609331 1.11283649 2.89 1.94 1.6926126 1.6833257 2.6429787 3.972844 2.64 6.36v28c0 2.7614237 2.2385763 5 5 5h3c-2.7614237 0-5-2.2385763-5-5v-28c.0029787-2.387156-.9473874-4.6766743-2.64-6.36-.8290669-.82716351-1.8104649-1.48595665-2.89-1.94-.9331059-.42051576-1.3956976-1.47972111-1.07-2.45.1537085-.46437343.3512659-.91306324.59-1.34.2218212-.38722462.1562222-.87511735-.16-1.19l-1.43-1.43c-.2144383-.21420838-.5144587-.3195981-.815751-.28655314-.3012923.03304497-.5713375.20095801-.734249.45655314-.148.231-.309.5-.472.808z" fill="#fec108"/><path id="Shape" d="m22 38v7c0 2.7614237-2.2385763 5-5 5h-10c-1.32651251.0000388-2.59913231.5249046-3.54 1.46l-.04.04c-1.41043805-1.4389277-1.81936092-3.5838515-1.03726701-5.4407783.78209391-1.8569269 2.60236396-3.0629671 4.61726701-3.0592217h10c2.7614237 0 5-2.2385763 5-5z" fill="#ff9801"/><path id="Shape" d="m60 48c.0024814 1.3074525-.507263 2.5638647-1.42 3.5l-.04-.04c-.9408677-.9350954-2.2134875-1.4599612-3.54-1.46h-10c-2.7614237 0-5-2.2385763-5-5v-7c0 2.7614237 2.2385763 5 5 5h10c1.3273046-.0039999 2.6013996.5214997 3.5399499 1.4600501.9385504.9385503 1.46405 2.2126453 1.4600501 3.5399499z" fill="#ff9801"/><path id="Shape" d="m58.54 44.46c-.9408677-.9350954-2.2134875-1.4599612-3.54-1.46h-3c1.7371066-.0105633 3.3536671.8866174 4.2636864 2.3663187.9100193 1.4797012.9814177 3.3271598.1883136 4.8726813.7845534.2320327 1.5010641.6510268 2.088 1.221l.04.04c1.9085239-1.9649991 1.8907295-5.0968149-.04-7.04z" fill="#f57c00"/><circle id="Oval" cx="9" cy="12" fill="#3f51b5" r="2"/><circle id="Oval" cx="50" cy="29" fill="#3f51b5" r="2"/><circle id="Oval" cx="55" cy="15" fill="#3f51b5" r="2"/><path id="Shape" d="m31 41c-.5522847 0-1-.4477153-1-1v-22c0-.5522847.4477153-1 1-1s1 .4477153 1 1v22c0 .5522847-.4477153 1-1 1z" fill="#91562d"/><g fill="#000"><path id="Shape" d="m6.3 10.715c-.19571145.4001981-.29827528.8395132-.3 1.285.00000003 1.6568542 1.34314578 2.9999999 3 2.9999999 1.6568542 0 3-1.3431457 3-2.9999999-.0017247-.4454868-.1042886-.8848019-.3-1.285l2.008-2.008c.2599566-.25107447.3642126-.62287789.2726972-.97250732-.0915155-.34962944-.3645604-.6226744-.7141899-.71418984-.3496294-.09151544-.7214328.01274058-.9725073.27269716l-2.009 2.007c-.8096478-.40139506-1.7603522-.40139506-2.57 0l-2.008-2.007c-.39237889-.37897221-1.01608478-.37355237-1.40181858.01218142-.38573379.3857338-.39115363 1.00943969-.01218142 1.40181858zm3.395.571.005.014.011.007c.3848952.3925114.3807832 1.0221073-.00920607 1.4095578-.38998932.3874505-1.01959854.3874505-1.40958786 0-.38998931-.3874505-.39410131-1.0170464-.00920607-1.4095578l.017-.007.007-.011c.3856778-.3812689 1.0063222-.3812689 1.392 0z"/><path id="Shape" d="m55 42h-10c-2.209139 0-4-1.790861-4-4v-21c-.0086893-4.030091-2.4286631-7.66359659-6.144-9.225-.4550482-.21651987-.6713951-.74310821-.5-1.217.1256212-.39239795.2908035-.77101055.493-1.13.458745-.78114385.3317086-1.77358984-.309-2.414l-1.433-1.43c-.4250532-.42761399-1.0216388-.63849834-1.621-.573-.6052721.06397538-1.1488606.39902894-1.478.911-.9493488 1.49077531-1.5789596 3.1623597-1.849 4.909-.0570252.36511239-.3067076.67100194-.653.8-3.9045472 1.46801322-6.4944518 5.1976191-6.506 9.369v21c0 2.209139-1.790861 4-4 4h-10c-2.25329537-.0071094-4.31948342 1.2523821-5.34556484 3.2585096-1.02608141 2.0061275-.83801252 4.4186121.48656484 6.2414904-.69676143.9573473-1.09384723 2.0998825-1.141 3.283-.05056651 1.592078.55417559 3.1352005 1.673 4.269 1.19696455 1.239798 2.84469137 1.9424626 4.568 1.948h10.759c5.7233212-.0048973 10.8690643-3.4881696 13-8.8 2.1309357 5.3118304 7.2766788 8.7951027 13 8.8h10.759c1.7219188-.0066165 3.3680019-.7091954 4.564-1.948 1.1202878-1.1331303 1.7265086-2.6763362 1.677-4.269-.0472124-1.1831062-.4442924-2.3256246-1.141-3.283 1.323782-1.8230453 1.5114186-4.2351083.4854885-6.2409399s-3.0915233-3.2654268-5.3444885-3.2590601zm-10 2h10c1.4444931-.0024264 2.7776718.7754843 3.4862652 2.0342383.7085935 1.2587539.6821058 2.8020649-.0692652 4.0357617-1.0028941-.6974701-2.1954189-1.0708976-3.417-1.07h-10c-2.209139 0-4-1.790861-4-4v-2.54c1.0966853.9908585 2.5219881 1.5396001 4 1.54zm-40.837 1.171c.75333397-.7505466 1.77359421-1.1716692 2.837-1.171h10c1.4780119-.0003999 2.9033147-.5491415 4-1.54v2.54c0 2.209139-1.790861 4-4 4h-10c-1.22154199-.0006411-2.41399172.3727629-3.417 1.07-.95708341-1.5722376-.71769527-3.5946546.58-4.9zm53.721 12.493c-.8188647.8485512-1.9457857 1.3303325-3.125 1.336h-10.759c-6.624447-.0071648-11.9928352-5.375553-12-12 0-.5522847-.4477153-1-1-1s-1 .4477153-1 1c-.0071648 6.624447-5.375553 11.9928352-12 12h-10.759c-1.1792143-.0056675-2.30613531-.4874488-3.125-1.336-.74051495-.7447079-1.14380192-1.7601527-1.116-2.81.07087223-2.1553652 1.84348985-3.8632823 4-3.854h10c3.3123376-.0033074 5.9966926-2.6876624 6-6v-28c.0064347-3.3376657 2.0765762-6.3234467 5.2-7.5 1.0246988-.38207012 1.7633908-1.2874649 1.932-2.368.2292736-1.4703877.7607832-2.87730502 1.561-4.132l1.429 1.417c-.2751578.48421827-.500318.99518453-.672 1.525-.4852891 1.46419876.2216996 3.05741279 1.633 3.68 2.9712448 1.2495696 4.9073458 4.1547056 4.917 7.378v28c.0033074 3.3123376 2.6876624 5.9966926 6 6h10c2.156299-.0087557 3.9286094 1.6988653 4 3.854.0278019 1.0498473-.375485 2.0652921-1.116 2.81z"/><path id="Shape" d="m54.707 24.293c-.3904999-.3903819-1.0235001-.3903819-1.414 0l-2.008 2.007c-.8096478-.4013951-1.7603522-.4013951-2.57 0l-2.008-2.008c-.3923789-.3789722-1.0160848-.3735524-1.4018186.0121814s-.3911536 1.0094397-.0121814 1.4018186l2.007 2.009c-.1957114.4001981-.2982753.8395132-.3 1.285.0000001 1.6568542 1.3431458 2.9999999 3 2.9999999s2.9999999-1.3431457 3-2.9999999c-.0017247-.4454868-.1042886-.8848019-.3-1.285l2.008-2.008c.3901059-.3907759.3896582-1.0237763-.001-1.414zm-4.707 5.707c-.4026168-.0000575-.765933-.241562-.9218393-.6127675s-.0739925-.7997066.2078393-1.0872325h.014l.007-.011c.3856778-.3812689 1.0063222-.3812689 1.392 0l.007.011.011.007c.2773119.2884853.3559465.7145104.1998944 1.0829848-.1560521.3684745-.5167404.6084425-.9168944.6100152z"/><path id="Shape" d="m53.715 12.3-2.008-2.007c-.3923789-.37897221-1.0160848-.37355237-1.4018186.0121814-.3857338.3857338-.3911536 1.0094397-.0121814 1.4018186l2.007 2.008c-.1957114.4001981-.2982753.8395132-.3 1.285 0 1.6568542 1.3431458 3 3 3s3-1.3431458 3-3c-.0017247-.4454868-.1042886-.8848019-.3-1.285l2.008-2.008c.3789722-.3923789.3735524-1.0160848-.0121814-1.4018186-.3857338-.38573377-1.0094397-.39115361-1.4018186-.0121814l-2.009 2.007c-.8096478-.4013951-1.7603522-.4013951-2.57 0zm1.285 3.7c-.4026168-.0000575-.765933-.241562-.9218393-.6127675s-.0739925-.7997066.2078393-1.0872325h.014l.007-.011c.3856778-.3812689 1.0063222-.3812689 1.392 0l.007.011.011.007c.2773119.2884853.3559465.7145104.1998944 1.0829848-.1560521.3684745-.5167404.6084425-.9168944.6100152z"/></g></g></g></svg>